<svg xmlns="http://www.w3.org/2000/svg" width="85.224" height="260.681" viewBox="0 0 85.224 260.681">
  <g id="Group" transform="translate(1)">
    <path id="Path" d="M16.472,2.92c-2.4,4.535-9.02,28.413-10.913,35.323-.3,1.085-.625,2.15-.98,3.211C2.542,47.509-4.97,73.1,5.222,94.78L22.687,12.23V1.156S19.285-2.382,16.472,2.92Z" transform="translate(6.162 33.823)" fill="#8fb8cc"/>
    <path id="Path-2" data-name="Path" d="M46.614,0,14.877,10.829S-8.82,73.206,9.712,165.012L0,176.677H30.8l1.392-90.7S57.73,19.157,46.614,0Z" transform="translate(2.864 82.984)" fill="#1e2454"/>
    <path id="Path-3" data-name="Path" d="M30.25,0,4.344,10.829S-11.779,82.144,18.1,165.012L7.262,176.7h34.1L34.7,87.2a61.641,61.641,0,0,1,.088-10.263C36.619,57.031,40.491,16.034,30.25,0Z" transform="translate(21.725 82.984)" fill="#1e2454"/>
    <path id="Path-4" data-name="Path" d="M10.854,0,0,11.685" transform="translate(28.986 247.996)" fill="none" stroke="#7f8ac9" stroke-linecap="round" stroke-miterlimit="10" stroke-width="1"/>
    <path id="Path-5" data-name="Path" d="M0,0A305.416,305.416,0,0,0,15.994,68.417" transform="translate(23.847 179.589)" fill="none" stroke="#7f8ac9" stroke-linecap="round" stroke-miterlimit="10" stroke-width="1"/>
    <path id="Path-6" data-name="Path" d="M6.421,4.608c-.183,2.282-1.8,3.968-3.614,3.763S-.164,4.266.019,1.984,1.686-.084,3.479.117,6.6,2.331,6.421,4.608Z" transform="translate(23.548 10.746)" fill="#1e2454"/>
    <path id="Path-7" data-name="Path" d="M23.147,7.984c-2.5-4.638-6.944-6.881-10.967-6a3.825,3.825,0,0,1-3.293-.836A4.851,4.851,0,0,0,6.324.028C3.173-.324.355,2.653.03,6.674c-.3,3.792,1.717,7.159,4.585,7.819A15.233,15.233,0,0,0,6.4,20.475c3.222,5.938,9.587,7.956,14.21,4.506S26.37,13.922,23.147,7.984Z" transform="translate(20.336 0)" fill="#1e2454"/>
    <path id="Path-8" data-name="Path" d="M6.385.025C-.192-.464.379,6.422.379,6.422h0a31.217,31.217,0,0,1-.2,6.69c-.688,4.535.559,7.712,3.86,8.875C8.069,23.4,12,21.635,13.517,16.5c.175-.591.35-1.183.55-1.769C15.113,11.626,17.877.909,6.385.025Z" transform="translate(24.731 8.248)" fill="#efce95"/>
    <path id="Path-9" data-name="Path" d="M17.636,9.354C14.972,2.742,0,0,0,0L.221,9.96s7.415.45,10.758-2.531a.336.336,0,0,1,.373-.077.433.433,0,0,1,.244.341,14.61,14.61,0,0,0,1.972,5.752.752.752,0,0,1,.083.679L13.022,15.9a.662.662,0,0,0,.08.592.457.457,0,0,0,.483.2l1.467-.371S20.3,15.97,17.636,9.354Z" transform="translate(24.734 4.534)" fill="#1e2454"/>
    <path id="Path-10" data-name="Path" d="M0,.149A2.84,2.84,0,0,1,2.5.491" transform="translate(32.617 14.716)" fill="none" stroke="#1e2454" stroke-linecap="round" stroke-miterlimit="10" stroke-width="2"/>
    <path id="Path-11" data-name="Path" d="M1.31.02a4.178,4.178,0,0,1,.313,2.209,6.686,6.686,0,0,1-.3,1.08A9.467,9.467,0,0,1,.906,4.33a2.732,2.732,0,0,1-.275.489A1.35,1.35,0,0,0,.414,5.2a.782.782,0,0,0,.254.709,1.537,1.537,0,0,0,.7.489A.963.963,0,0,0,2.2,6.3a.019.019,0,0,1,.029,0,1,1,0,0,1-.921.435A1.482,1.482,0,0,1,.351,6.25a1.51,1.51,0,0,1-.292-.523,1.1,1.1,0,0,1,0-.713,1.477,1.477,0,0,1,.346-.489,3.5,3.5,0,0,0,.329-.357A2.48,2.48,0,0,0,1.2,3.25a4.375,4.375,0,0,0,.079-1.065c.025-.709,0-1.412,0-2.155A.028.028,0,0,1,1.3,0,.024.024,0,0,1,1.31.02Z" transform="translate(28.489 15.94)" fill="#1e2454"/>
    <ellipse id="Oval" cx="0.67" cy="0.516" rx="0.67" ry="0.516" transform="translate(26.892 18.842) rotate(-78.69)" fill="#1e2454"/>
    <path id="Path-12" data-name="Path" d="M2.063.434A2.339,2.339,0,0,0,0,.551" transform="translate(26.86 14.68)" fill="none" stroke="#1e2454" stroke-linecap="round" stroke-miterlimit="10" stroke-width="2"/>
    <ellipse id="Oval-2" data-name="Oval" cx="0.584" cy="0.684" rx="0.584" ry="0.684" transform="translate(26.41 20.368)" fill="#ffb89f"/>
    <ellipse id="Oval-3" data-name="Oval" cx="0.709" cy="0.545" rx="0.709" ry="0.545" transform="translate(32.792 19.236) rotate(-78.69)" fill="#1e2454"/>
    <ellipse id="Oval-4" data-name="Oval" cx="0.617" cy="0.723" rx="0.617" ry="0.723" transform="translate(33.713 20.578)" fill="#ffb89f"/>
    <path id="Path-13" data-name="Path" d="M.1,0s.108.489.963.347c.759-.142,1.092.45.738.694A1.157,1.157,0,0,1,.417.938,2.109,2.109,0,0,1,0,.269" transform="translate(28.828 21.345)" fill="#1e2454"/>
    <path id="Path-14" data-name="Path" d="M3.364.1A2.226,2.226,0,0,1,3.11.674c-.15.068-.3.142-.446.2a3.393,3.393,0,0,1-.93.205,3.592,3.592,0,0,1-.942-.049A3.742,3.742,0,0,1,.333.909,2.542,2.542,0,0,1,0,.4L.5.2a3.663,3.663,0,0,0,.4.1,2.929,2.929,0,0,0,.8.039A2.9,2.9,0,0,0,2.476.171,2.855,2.855,0,0,0,2.847,0C3.005.044,3.172.064,3.364.1Z" transform="translate(29.791 23.525)" fill="#1e2454"/>
    <path id="Path-15" data-name="Path" d="M3.523,1.272C3.8,2.249,3.127,4.576.08,4V3.94A3.876,3.876,0,0,1,.827.739C1.9-.526,3.165-.047,3.523,1.272Z" transform="translate(38.193 19.457)" fill="#efce95"/>
    <path id="Path-16" data-name="Path" d="M0,4.005c3.047.572,3.718-1.735,3.443-2.732C3.026-.3,1.3-.681.133,1.67" transform="translate(38.273 19.456)" fill="none" stroke="#1e2454" stroke-linecap="round" stroke-miterlimit="10" stroke-width="1"/>
    <path id="Path-17" data-name="Path" d="M1.1.39a.835.835,0,0,0-.542,0C.4.439.233.537,0,.61A.852.852,0,0,1,.171.253.688.688,0,0,1,.479.038a.489.489,0,0,1,.379,0A.479.479,0,0,1,1.1.39Z" transform="translate(39.532 20.711)" fill="#1e2454"/>
    <path id="Path-18" data-name="Path" d="M46.406,62.421C46.7,34.077,39.082,4.007,28.9,0c-4.081,4.848-9.17,6.8-11.817,4.623-6.669,8.308-11.588,32.224-12.6,52.349a21.83,21.83,0,0,1-1.776,7.4c-.375.88-2.693,4.95-2.705,5.9-.067,6.808,6.227,9.241,18.44,9.412s27.84-5.122,27.927-11.929V67.44c-.025-.489-.042-.977-.025-1.466Q46.385,64.185,46.406,62.421Z" transform="translate(11.383 30.107)" fill="#8fb8cc"/>
    <path id="Path-19" data-name="Path" d="M2.7,0A187.1,187.1,0,0,0,0,23.355" transform="translate(15.873 63.695)" fill="none" stroke="#1e2454" stroke-linecap="round" stroke-miterlimit="10" stroke-width="1"/>
    <path id="Path-20" data-name="Path" d="M3.454,3.939A3.823,3.823,0,0,0,5.364,0a7.527,7.527,0,0,1-5.1,1.016l-.258.142A3.516,3.516,0,0,0,1.054,3.944a1.952,1.952,0,0,1,.554,1.515C1.341,10.937.833,35.846,13.066,40.7l3.43.914a1.718,1.718,0,0,0,1.639-.449,2.431,2.431,0,0,0,.712-1.789l-.075-4.76a2.473,2.473,0,0,0-.463-1.427c-2.384-3.255-13.53-18.81-15.423-27.7A1.464,1.464,0,0,1,3.454,3.939Z" transform="translate(29.75 34.442)" fill="#1e2454"/>
    <path id="Path-21" data-name="Path" d="M1.8,2.424Q1.525,1.548,1.33.64a1.656,1.656,0,0,1,0-.64L.079.67C.05,1.329.017,2.258,0,3.392Z" transform="translate(31.3 39.28)" fill="#2e376d"/>
    <path id="Path-22" data-name="Path" d="M3.922,2.165Q3.4,1.065,2.947,0L0,1.554c.021.831.054,1.71.1,2.624Z" transform="translate(31.295 44.783)" fill="#2e376d"/>
    <path id="Path-23" data-name="Path" d="M6.144,2.077Q5.556,1.036,5,0L0,2.634c.083.831.179,1.676.3,2.527Z" transform="translate(31.675 49.846)" fill="#2e376d"/>
    <path id="Path-24" data-name="Path" d="M8.186,2.023Q7.561,1.046,6.936,0L0,3.651q.238,1.207.529,2.4Z" transform="translate(32.508 54.728)" fill="#2e376d"/>
    <path id="Path-25" data-name="Path" d="M9.791,1.989C9.374,1.354,8.924.689,8.474,0L0,4.472c.258.762.538,1.51.834,2.233Z" transform="translate(33.967 59.492)" fill="#2e376d"/>
    <path id="Path-26" data-name="Path" d="M10.725,1.955C10.308,1.4,9.862.738,9.349,0L0,4.926A18.57,18.57,0,0,0,1.334,6.881Z" transform="translate(36.247 64.184)" fill="#2e376d"/>
    <path id="Path-27" data-name="Path" d="M2.343,5.947,8.595,2.654,8.553.078V0L0,4.481A11.627,11.627,0,0,0,2.343,5.947Z" transform="translate(39.961 68.988)" fill="#2e376d"/>
    <path id="Path-28" data-name="Path" d="M2.245,0C-1.744,6.377-.343,16.933,5.859,24.791A26.253,26.253,0,0,0,7.71,26.883,129.106,129.106,0,0,0,2.245,0Z" transform="translate(49.196 47.109)" fill="#1e2454"/>
    <path id="Path-29" data-name="Path" d="M4.49,0A21.827,21.827,0,0,1,2.706,7.423C2.331,8.3.013,12.374,0,13.322c-.067,6.807,7.415,10.707,21.575,9.412" transform="translate(11.383 87.06)" fill="none" stroke="#1e2454" stroke-linecap="round" stroke-miterlimit="10" stroke-width="1"/>
    <path id="Path-30" data-name="Path" d="M33.7,5.611h0a45.341,45.341,0,0,0-5.1-2.487C15.362-2.345,2.728-.449.377,7.366a11.076,11.076,0,0,0,.659,7.448C3.47,20.727,9.556,26.381,15.1,25.442c9.8-1.657,18.486-8.464,18.54-13.683v-.318c-.025-.489-.042-.977-.025-1.491C33.657,8.519,33.69,7.072,33.7,5.611Z" transform="translate(24.099 86.091)" fill="#1e2454"/>
    <path id="Path-31" data-name="Path" d="M2.5,32.015S2.428,8.841.365,4.281,5.459-1.094,9.91,1.349C12.411,2.708,18.751.015,18.5,5.19c-.363,7.448,4.556,31.047-.417,31.555-6.252.64-7.34.85-10.963.288C2.107,36.247,2.549,35.817,2.5,32.015Z" transform="translate(24.911 67.521)" fill="#fff"/>
    <path id="Path-32" data-name="Path" d="M0,0A13.506,13.506,0,0,0,6.486,5.9l.625.166q-.078-1.31-.029-2.624C7.29-.875,2.905.283,0,0Z" transform="translate(36.331 69.242)" fill="#8fb8cc"/>
    <path id="Path-33" data-name="Path" d="M0,0C2.5,1.359,8.841-1.334,8.591,3.841c-.175,3.563.859,10.815,1.442,17.471" transform="translate(34.822 68.846)" fill="none" stroke="#1e2454" stroke-linecap="round" stroke-miterlimit="10" stroke-width="1"/>
    <path id="Path-34" data-name="Path" d="M15.692,2.737s3.464-6.807,12.859,1.051,57.522,64.18,14.822,67.928S.961,71.227.961,65.876s-2.163-6.055,0-7.448,5.911-.7,5.911-.7-2.084-6.319,4.731-3.8c7.153,2.639,29.2-6.671,29.2-6.671S19.664,25.011,16.213,19.093C10.894,10.013,15.692,2.737,15.692,2.737Z" transform="translate(23.002 29.057)" fill="#8fb8cc"/>
    <path id="Path-35" data-name="Path" d="M15.59,10.562a55.9,55.9,0,0,0-.767-9.329,12.986,12.986,0,0,1-3.835-.64C6.791-.957,5.965.842,5.957,2.449A1.937,1.937,0,0,1,5.5,3.716a1.4,1.4,0,0,1-1.089.507C3.164,4.194,2.472,2.943,1.3,3.7-.871,5.093.33,7.185.346,12.541c0,3.748-.117,6.93,14.5,7.213A55.645,55.645,0,0,0,15.59,10.562Z" transform="translate(23.604 82.392)" fill="#efce95"/>
    <path id="Path-36" data-name="Path" d="M0,9.192A55.645,55.645,0,0,0,.746,0" transform="translate(38.448 92.953)" fill="none" stroke="#1e2454" stroke-linecap="round" stroke-miterlimit="10" stroke-width="1"/>
    <path id="Path-37" data-name="Path" d="M34.893,4.374C9.508,6.246,2.551,4.691.638,1.794A4.294,4.294,0,0,1,0,0" transform="translate(24.043 96.98)" fill="none" stroke="#1e2454" stroke-linecap="round" stroke-miterlimit="10" stroke-width="1"/>
    <path id="Path-38" data-name="Path" d="M0,6.671C7.153,9.31,29.2,0,29.2,0" transform="translate(34.592 76.313)" fill="none" stroke="#1e2454" stroke-linecap="round" stroke-miterlimit="10" stroke-width="1"/>
    <path id="Path-39" data-name="Path" d="M3.5.46A2,2,0,0,0,.953.46C-.372,1.516-.472,3.319,1.662,4.248" transform="translate(23.569 85.91)" fill="none" stroke="#1e2454" stroke-linecap="round" stroke-miterlimit="10" stroke-width="1"/>
    <path id="Path-40" data-name="Path" d="M.075,0S-.262,2.013.492,2.9s1.142.816,1.142.816" transform="translate(23.534 89.596)" fill="none" stroke="#1e2454" stroke-linecap="round" stroke-miterlimit="10" stroke-width="1"/>
    <path id="Path-41" data-name="Path" d="M.075,0S-.262,2.013.492,2.908s1.138.816,1.138.816" transform="translate(23.671 92.269)" fill="none" stroke="#1e2454" stroke-linecap="round" stroke-miterlimit="10" stroke-width="1"/>
    <path id="Path-42" data-name="Path" d="M0,0A20.392,20.392,0,0,0,8.682,9.285" transform="translate(42.408 115.179)" fill="none" stroke="#7f8ac9" stroke-linecap="round" stroke-miterlimit="10" stroke-width="1"/>
    <path id="Path-43" data-name="Path" d="M0,.653H83.224" transform="translate(0 259.027)" fill="none" stroke="#1e2454" stroke-linecap="round" stroke-miterlimit="10" stroke-width="2"/>
  </g>
</svg>
